<?xml version="1.0" encoding="UTF-8"?>
<svg xmlns="http://www.w3.org/2000/svg" version="1.1" id="home" width="32" height="32" viewBox="0 0 32 32">
    <path d="M30,15 a1,1,0,0,1-.58-.19 L16,5.23,2.58,14.81 a1,1,0,0,1-1.16-1.62 l14-10 a1,1,0,0,1,1.16,0 l14,10 A1,1,0,0,1,30,15Z"
        fill="black" />
    <path d="M5,9 A1,1,0,0,1,4,8 V4 A1,1,0,0,1,5,3 H9 A1,1,0,0,1,9,5 H6 V8 A1,1,0,0,1,5,9Z"
        fill="black" />
    <path d="M25,29 H20 a1,1,0,0,1-1-1 V21 H13 v7 a1,1,0,0,1-1,1 H7 a3,3,0,0,1-3-3 V16 a1,1,0,0,1,2,0 V26 a1,1,0,0,0,1,1 h4 V20 a1,1,0,0,1,1-1 h8 a1,1,0,0,1,1,1 v7 h4 a1,1,0,0,0,1-1 V16 a1,1,0,0,1,2,0 V26 A3,3,0,0,1,25,29Z"
        fill="black" />
</svg>